<?xml version="1.0" standalone="no"?><svg xmlns="http://www.w3.org/2000/svg" viewBox="0 0 1440 320"><path fill="#fc7608" fill-opacity="1" d="M0,224L20,218.7C40,213,80,203,120,181.3C160,160,200,128,240,122.7C280,117,320,139,360,133.3C400,128,440,96,480,106.7C520,117,560,171,600,170.7C640,171,680,117,720,106.7C760,96,800,128,840,144C880,160,920,160,960,181.3C1000,203,1040,245,1080,240C1120,235,1160,181,1200,170.7C1240,160,1280,192,1320,208C1360,224,1400,224,1420,224L1440,224L1440,320L1420,320C1400,320,1360,320,1320,320C1280,320,1240,320,1200,320C1160,320,1120,320,1080,320C1040,320,1000,320,960,320C920,320,880,320,840,320C800,320,760,320,720,320C680,320,640,320,600,320C560,320,520,320,480,320C440,320,400,320,360,320C320,320,280,320,240,320C200,320,160,320,120,320C80,320,40,320,20,320L0,320Z"></path></svg>